<svg xmlns="http://www.w3.org/2000/svg" width="64" height="64" viewBox="0 0 64 64" aria-hidden="true" role="img">
  <defs>
    <filter id="shadow" x="-50%" y="-50%" width="200%" height="200%">
      <feDropShadow dx="0" dy="1.5" stdDeviation="1.8" flood-opacity="0.25"/>
    </filter>
  </defs>
  <!-- Pin base -->
  <g filter="url(#shadow)">
    <path d="M32 4c-11.046 0-20 8.954-20 20 0 14 18 32 20 36 2-4 20-22 20-36 0-11.046-8.954-20-20-20z" fill="#FF7A45" stroke="white" stroke-width="2"/>
  </g>
  <!-- Glyph circle backdrop -->
  <circle cx="32" cy="24" r="12" fill="white" opacity="0.18"/>
  <!-- shrimp-ish curve -->
  <path d="M24 22c0-3 3-6 8-6 5 0 8 3 8 6 0 3-3 6-8 6" stroke="#ffffff" stroke-width="2" stroke-linecap="round" stroke-linejoin="round" fill="none" />
  <path d="M32 28c-2 0-3-1-3-2s1-2 3-2" stroke="#ffffff" stroke-width="2" stroke-linecap="round" stroke-linejoin="round" fill="none" />
  <circle cx="37" cy="21" r="1.2" fill="#ffffff"/>
</svg>
