<svg xmlns="http://www.w3.org/2000/svg" width="64" height="64" viewBox="0 0 64 64" aria-hidden="true" role="img">
  <defs>
    <filter id="shadow" x="-50%" y="-50%" width="200%" height="200%">
      <feDropShadow dx="0" dy="1.5" stdDeviation="1.8" flood-opacity="0.25"/>
    </filter>
  </defs>
  <!-- Pin base -->
  <g filter="url(#shadow)">
    <path d="M32 4c-11.046 0-20 8.954-20 20 0 14 18 32 20 36 2-4 20-22 20-36 0-11.046-8.954-20-20-20z" fill="#17B5A5" stroke="white" stroke-width="2"/>
  </g>
  <!-- Glyph circle backdrop -->
  <circle cx="32" cy="24" r="12" fill="white" opacity="0.18"/>
  <!-- seashell w/ribbon -->
  <path d="M26 28c0-5 12-5 12 0-2 2-10 2-12 0z" stroke="#ffffff" stroke-width="2" stroke-linecap="round" stroke-linejoin="round" fill="none" />
  <path d="M32 20c-2 1-3 3-3 4 0 3 6 3 6 0 0-1-1-3-3-4z" stroke="#ffffff" stroke-width="2" stroke-linecap="round" stroke-linejoin="round" fill="none" />
  <path d="M28 30l-2 4M36 30l2 4" stroke="#ffffff" stroke-width="2" stroke-linecap="round" stroke-linejoin="round" fill="none" />
</svg>
