<svg xmlns="http://www.w3.org/2000/svg" width="64" height="64" viewBox="0 0 64 64" aria-hidden="true" role="img">
  <defs>
    <filter id="shadow" x="-50%" y="-50%" width="200%" height="200%">
      <feDropShadow dx="0" dy="1.5" stdDeviation="1.8" flood-opacity="0.25"/>
    </filter>
  </defs>
  <!-- Pin base -->
  <g filter="url(#shadow)">
    <path d="M32 4c-11.046 0-20 8.954-20 20 0 14 18 32 20 36 2-4 20-22 20-36 0-11.046-8.954-20-20-20z" fill="#8A7CFF" stroke="white" stroke-width="2"/>
  </g>
  <!-- Glyph circle backdrop -->
  <circle cx="32" cy="24" r="12" fill="white" opacity="0.18"/>
  <!-- lotus -->
  <path d="M32 30c-6 0-8-4-8-4 2 0 5 1 8 3 3-2 6-3 8-3 0 0-2 4-8 4z" stroke="#ffffff" stroke-width="2" stroke-linecap="round" stroke-linejoin="round" fill="none" />
  <path d="M32 20c-2 1-3 3-3 5 0 2 1 3 3 5 2-2 3-3 3-5 0-2-1-4-3-5z" stroke="#ffffff" stroke-width="2" stroke-linecap="round" stroke-linejoin="round" fill="none" />
</svg>
